<svg width="30" height="31" viewBox="0 0 30 31" fill="none" xmlns="http://www.w3.org/2000/svg">
<path d="M15 31C6.7155 31 0 24.0606 0 15.5C0 6.93935 6.7155 0 15 0C23.2845 0 30 6.93935 30 15.5C30 24.0606 23.2845 31 15 31ZM15 27.9C18.1826 27.9 21.2348 26.5936 23.4853 24.2681C25.7357 21.9427 27 18.7887 27 15.5C27 12.2113 25.7357 9.05733 23.4853 6.73188C21.2348 4.40642 18.1826 3.1 15 3.1C11.8174 3.1 8.76516 4.40642 6.51472 6.73188C4.26428 9.05733 3 12.2113 3 15.5C3 18.7887 4.26428 21.9427 6.51472 24.2681C8.76516 26.5936 11.8174 27.9 15 27.9ZM13.5 21.7H16.5V24.8H13.5V21.7ZM13.5 18.6124C13.5 18.6124 16.5 18.6 16.5 18.6124C16.5 17.0593 21 15.5 21 12.4C21 8.9745 18.3405 6.2 15.0135 6.2C14.2244 6.19816 13.4428 6.35718 12.7133 6.66794C11.9837 6.97869 11.3207 7.43509 10.7621 8.011C10.2035 8.5869 9.76038 9.27101 9.45801 10.0241C9.15564 10.7773 9 11.5846 9 12.4H12C12 10.695 13.35 9.3 15 9.3C16.65 9.3 18 10.695 18 12.4C18 13.795 13.5 16.0688 13.5 18.6124Z" fill="#00857B"/>
</svg>
